<svg xmlns="http://www.w3.org/2000/svg" xmlns:xlink="http://www.w3.org/1999/xlink" viewBox="0 0 100 125" version="1.1" x="0px" y="0px"><title>i4 copy</title><desc>Created with Sketch.</desc><g stroke="none" stroke-width="1" fill="none" fill-rule="evenodd"><path d="M46.3603846,24.7511125 C47.3415385,23.7699587 48.66,23.2307279 50.0423077,23.2307279 C50.2169231,23.2307279 50.3926923,23.2391895 50.5688462,23.2568818 C52.97,23.4945741 54.9592308,25.4845741 55.1973077,27.8849587 C55.3526923,29.4549587 54.8084615,30.9891895 53.7034615,32.0941895 C52.5984615,33.1991895 51.0692308,33.7441895 49.4946154,33.5880356 C47.0938462,33.3503433 45.1038462,31.3607279 44.8661538,28.9595741 C44.7107692,27.3899587 45.2553846,25.8561125 46.3603846,24.7511125 L46.3603846,24.7511125 Z M78.4838462,56.6041895 C72.9469231,45.1684202 65.1938462,37.6638048 56.6038462,35.1722664 C56.6342308,35.1430356 56.6653846,35.1153433 56.695,35.0857279 C58.6996154,33.0811125 59.6884615,30.3041895 59.4076923,27.4680356 C58.9676923,23.0284202 55.4257692,19.4864971 50.9857692,19.0464971 C48.1461538,18.7672664 45.3730769,19.7549587 43.3688462,21.7595741 C41.3638462,23.7641895 40.375,26.5403433 40.6557692,29.3764971 C40.885,31.6899587 41.9615385,33.7545741 43.5634615,35.2684202 C35.0996154,37.8514971 27.4688462,45.3111125 22,56.6068818 L25.8076923,58.4503433 C28.3615385,53.1757279 31.3942308,48.8399587 34.7396154,45.5695741 C34.0046154,49.3649587 34.6103846,53.9834202 36.5461538,59.2453433 L33.2119231,59.2453433 C31.5423077,59.2453433 29.9426923,60.077651 29.1073077,61.5234202 C28.2030769,63.0884202 28.2942308,64.9822664 29.3103846,66.437651 L37.6703846,81.3868818 L41.3634615,79.3218818 L32.9438462,64.2668818 L32.7888462,64.0288048 C32.7569231,63.9868818 32.6607692,63.8584202 32.7561538,63.6672664 C32.8515385,63.4761125 33.0123077,63.4761125 33.065,63.4761125 L39.6857692,63.4761125 C41.2142308,63.4761125 42.2380769,61.9045741 41.6207692,60.5061125 L41.6207692,60.5061125 C38.2969231,52.9795741 37.7657692,46.8399587 40.1257692,43.2180356 C41.9411538,40.4314971 45.525,38.9572664 50.7776923,38.8234202 C56.0303846,38.9572664 59.6146154,40.4314971 61.43,43.2180356 C63.7896154,46.8399587 63.2588462,52.9795741 59.935,60.5061125 L59.935,60.5061125 C59.3173077,61.9045741 60.3415385,63.4761125 61.87,63.4761125 L68.4907692,63.4761125 C68.5438462,63.4761125 68.7046154,63.4761125 68.8,63.6672664 C68.8953846,63.8580356 68.7988462,63.9864971 68.7673077,64.0284202 L68.6815385,64.142651 L60.1926923,79.3218818 L63.8853846,81.3868818 L72.2453846,66.4380356 C73.2619231,64.9818818 73.3526923,63.0868818 72.4476923,61.5222664 C71.6123077,60.0772664 70.0130769,59.2453433 68.3438462,59.2453433 L65.0092308,59.2453433 C66.73,54.5684202 67.3942308,50.4030356 67.0057692,46.8691895 C69.8534615,49.9584202 72.4473077,53.8445741 74.6761538,58.447651 L78.4838462,56.6041895 Z" fill="#000000"/></g><text x="0" y="115" fill="#000000" font-size="5px" font-weight="bold" font-family="'Helvetica Neue', Helvetica, Arial-Unicode, Arial, Sans-serif">Created by Marek Polakovic</text><text x="0" y="120" fill="#000000" font-size="5px" font-weight="bold" font-family="'Helvetica Neue', Helvetica, Arial-Unicode, Arial, Sans-serif">from the Noun Project</text></svg>